<svg width="1391" height="37" viewBox="0 0 1391 37" fill="none" xmlns="http://www.w3.org/2000/svg">
<path d="M689.97 17.0606H682.333V19.606H689.97V17.0606ZM692.731 12.9306L690.033 10.2324L688.232 12.0333L690.931 14.7315L692.731 12.9306ZM697.606 4.33331H695.061V11.9697H697.606V4.33331ZM704.434 12.0333L702.633 10.2324L699.935 12.9306L701.736 14.7315L704.434 12.0333ZM702.697 17.0606V19.606H710.333V17.0606H702.697ZM696.333 14.5151C694.227 14.5151 692.515 16.2269 692.515 18.3333C692.515 20.4397 694.227 22.1515 696.333 22.1515C698.44 22.1515 700.151 20.4397 700.151 18.3333C700.151 16.2269 698.44 14.5151 696.333 14.5151ZM699.935 23.736L702.633 26.4342L704.434 24.6333L701.736 21.9351L699.935 23.736V23.736ZM688.232 24.6333L690.033 26.4342L692.731 23.736L690.931 21.9351L688.232 24.6333ZM695.061 32.3333H697.606V24.6969H695.061V32.3333Z" fill="white"/>
<path d="M834.167 15.8334H827.167V18.1667H834.167V15.8334ZM836.698 12.0475L834.225 9.57419L832.574 11.225L835.048 13.6984L836.698 12.0475ZM841.167 4.16669H838.833V11.1667H841.167V4.16669ZM847.426 11.225L845.775 9.57419L843.302 12.0475L844.953 13.6984L847.426 11.225ZM845.833 15.8334V18.1667H852.833V15.8334H845.833ZM840 13.5C838.069 13.5 836.5 15.0692 836.5 17C836.5 18.9309 838.069 20.5 840 20.5C841.931 20.5 843.5 18.9309 843.5 17C843.5 15.0692 841.931 13.5 840 13.5ZM843.302 21.9525L845.775 24.4259L847.426 22.775L844.953 20.3017L843.302 21.9525V21.9525ZM832.574 22.775L834.225 24.4259L836.698 21.9525L835.048 20.3017L832.574 22.775ZM838.833 29.8334H841.167V22.8334H838.833V29.8334Z" fill="white"/>
<path d="M544.167 15.8334H537.167V18.1667H544.167V15.8334ZM546.698 12.0475L544.225 9.57419L542.574 11.225L545.048 13.6984L546.698 12.0475ZM551.167 4.16669H548.833V11.1667H551.167V4.16669ZM557.426 11.225L555.775 9.57419L553.302 12.0475L554.953 13.6984L557.426 11.225ZM555.833 15.8334V18.1667H562.833V15.8334H555.833ZM550 13.5C548.069 13.5 546.5 15.0692 546.5 17C546.5 18.9309 548.069 20.5 550 20.5C551.931 20.5 553.5 18.9309 553.5 17C553.5 15.0692 551.931 13.5 550 13.5ZM553.302 21.9525L555.775 24.4259L557.426 22.775L554.953 20.3017L553.302 21.9525V21.9525ZM542.574 22.775L544.225 24.4259L546.698 21.9525L545.048 20.3017L542.574 22.775ZM548.833 29.8334H551.167V22.8334H548.833V29.8334Z" fill="white"/>
<path d="M0 0.5H1390.01" stroke="white"/>
<line y1="36.5" x2="1390.01" y2="36.5" stroke="white"/>
</svg>
