<svg width="190" height="60" viewBox="0 0 190 60" fill="none" xmlns="http://www.w3.org/2000/svg">
<path d="M147.5 27.5H132.5V32.5H147.5V27.5ZM152.925 19.3875L147.625 14.0875L144.088 17.625L149.388 22.925L152.925 19.3875ZM162.5 2.5H157.5V17.5H162.5V2.5ZM175.913 17.625L172.375 14.0875L167.075 19.3875L170.613 22.925L175.913 17.625ZM172.5 27.5V32.5H187.5V27.5H172.5ZM160 22.5C155.863 22.5 152.5 25.8625 152.5 30C152.5 34.1375 155.863 37.5 160 37.5C164.138 37.5 167.5 34.1375 167.5 30C167.5 25.8625 164.138 22.5 160 22.5ZM167.075 40.6125L172.375 45.9125L175.913 42.375L170.613 37.075L167.075 40.6125V40.6125ZM144.088 42.375L147.625 45.9125L152.925 40.6125L149.388 37.075L144.088 42.375ZM157.5 57.5H162.5V42.5H157.5V57.5Z" fill="#0A1D37"/>
<text fill="#0A1D37" xml:space="preserve" style="white-space: pre" font-family="Nunito" font-size="35" font-weight="300" letter-spacing="0em"><tspan x="0" y="41.515">MyBlog</tspan></text>
</svg>
