<svg width="163" height="44" viewBox="0 0 163 44" fill="none" xmlns="http://www.w3.org/2000/svg">
<path d="M55.064 33.224C54.2533 33.224 53.848 32.7973 53.848 31.944V11.496C53.848 10.6427 54.2533 10.216 55.064 10.216C55.4053 10.216 55.672 10.2907 55.864 10.44C56.0773 10.568 56.2693 10.792 56.44 11.112L64.728 26.728L72.984 11.112C73.1547 10.792 73.336 10.568 73.528 10.44C73.72 10.2907 73.9973 10.216 74.36 10.216C75.1493 10.216 75.544 10.6427 75.544 11.496V31.944C75.544 32.7973 75.1387 33.224 74.328 33.224C73.5173 33.224 73.112 32.7973 73.112 31.944V15.368L65.88 28.968C65.7307 29.2453 65.5707 29.448 65.4 29.576C65.2507 29.6827 65.0267 29.736 64.728 29.736C64.4293 29.736 64.1947 29.672 64.024 29.544C63.8533 29.416 63.704 29.224 63.576 28.968L56.248 15.4V31.944C56.248 32.7973 55.8533 33.224 55.064 33.224ZM84.263 38.984C83.7723 38.984 83.4417 38.792 83.271 38.408C83.1003 38.0453 83.111 37.6293 83.303 37.16L85.255 32.744L79.367 19.048C79.1537 18.5573 79.143 18.1307 79.335 17.768C79.5483 17.4053 79.943 17.224 80.519 17.224C81.1163 17.224 81.5537 17.5653 81.831 18.248L86.663 30.056L91.527 18.248C91.6977 17.864 91.879 17.5973 92.071 17.448C92.263 17.2987 92.5403 17.224 92.903 17.224C93.3937 17.224 93.7243 17.4053 93.895 17.768C94.0657 18.1307 94.055 18.5467 93.863 19.016L85.671 37.96C85.5003 38.344 85.3083 38.6107 85.095 38.76C84.903 38.9093 84.6257 38.984 84.263 38.984ZM99.0365 33C98.0765 33 97.5965 32.52 97.5965 31.56V11.88C97.5965 10.92 98.0765 10.44 99.0365 10.44H106.621C108.946 10.44 110.738 10.9627 111.997 12.008C113.277 13.032 113.917 14.472 113.917 16.328C113.917 17.5653 113.597 18.6213 112.957 19.496C112.317 20.3707 111.431 21.0107 110.301 21.416C111.602 21.7573 112.615 22.3867 113.341 23.304C114.087 24.2213 114.461 25.384 114.461 26.792C114.461 28.7973 113.81 30.3333 112.509 31.4C111.207 32.4667 109.373 33 107.005 33H99.0365ZM100.157 20.52H106.237C109.629 20.52 111.325 19.1973 111.325 16.552C111.325 13.8853 109.629 12.552 106.237 12.552H100.157V20.52ZM100.157 30.888H106.749C110.162 30.888 111.869 29.512 111.869 26.76C111.869 24.008 110.162 22.632 106.749 22.632H100.157V30.888ZM123.606 33.288C122.07 33.288 120.896 32.8293 120.086 31.912C119.275 30.9733 118.87 29.6187 118.87 27.848V11.528C118.87 10.6533 119.296 10.216 120.15 10.216C121.024 10.216 121.462 10.6533 121.462 11.528V27.656C121.462 29.9387 122.368 31.08 124.182 31.08C124.374 31.08 124.544 31.0693 124.694 31.048C124.843 31.0267 124.992 31.016 125.142 31.016C125.376 30.9947 125.536 31.048 125.622 31.176C125.728 31.304 125.782 31.56 125.782 31.944C125.782 32.6693 125.419 33.0853 124.694 33.192C124.523 33.2347 124.342 33.256 124.15 33.256C123.958 33.2773 123.776 33.288 123.606 33.288ZM134.646 33.288C133.131 33.288 131.819 32.9573 130.71 32.296C129.601 31.6347 128.737 30.7067 128.118 29.512C127.521 28.296 127.222 26.8667 127.222 25.224C127.222 23.5813 127.521 22.1627 128.118 20.968C128.737 19.752 129.601 18.8133 130.71 18.152C131.819 17.4907 133.131 17.16 134.646 17.16C136.139 17.16 137.441 17.4907 138.55 18.152C139.681 18.8133 140.545 19.752 141.142 20.968C141.761 22.1627 142.07 23.5813 142.07 25.224C142.07 26.8667 141.761 28.296 141.142 29.512C140.545 30.7067 139.681 31.6347 138.55 32.296C137.441 32.9573 136.139 33.288 134.646 33.288ZM134.646 31.208C136.097 31.208 137.259 30.696 138.134 29.672C139.009 28.6267 139.446 27.144 139.446 25.224C139.446 23.2827 139.009 21.8 138.134 20.776C137.259 19.752 136.097 19.24 134.646 19.24C133.174 19.24 132.001 19.752 131.126 20.776C130.273 21.8 129.846 23.2827 129.846 25.224C129.846 27.144 130.273 28.6267 131.126 29.672C132.001 30.696 133.174 31.208 134.646 31.208ZM152.843 39.048C151.713 39.048 150.603 38.9093 149.515 38.632C148.449 38.376 147.478 37.96 146.603 37.384C146.283 37.192 146.091 36.9573 146.027 36.68C145.985 36.424 146.027 36.168 146.155 35.912C146.283 35.6773 146.465 35.5067 146.699 35.4C146.955 35.2933 147.222 35.3147 147.499 35.464C148.438 36.04 149.334 36.4347 150.187 36.648C151.041 36.8613 151.883 36.968 152.715 36.968C155.787 36.968 157.323 35.3893 157.323 32.232V29.48C156.875 30.4613 156.171 31.24 155.211 31.816C154.273 32.3707 153.195 32.648 151.979 32.648C150.55 32.648 149.313 32.3173 148.267 31.656C147.222 30.9947 146.411 30.088 145.835 28.936C145.281 27.7627 145.003 26.408 145.003 24.872C145.003 23.336 145.281 21.992 145.835 20.84C146.411 19.6667 147.222 18.76 148.267 18.12C149.313 17.48 150.55 17.16 151.979 17.16C153.195 17.16 154.273 17.4267 155.211 17.96C156.15 18.4933 156.843 19.24 157.291 20.2V18.536C157.291 17.6613 157.718 17.224 158.571 17.224C159.425 17.224 159.851 17.6613 159.851 18.536V31.88C159.851 34.2693 159.254 36.0613 158.059 37.256C156.886 38.4507 155.147 39.048 152.843 39.048ZM152.459 30.536C153.953 30.536 155.137 30.024 156.011 29C156.886 27.976 157.323 26.6 157.323 24.872C157.323 23.144 156.886 21.7787 156.011 20.776C155.137 19.752 153.953 19.24 152.459 19.24C150.987 19.24 149.814 19.752 148.939 20.776C148.065 21.7787 147.627 23.144 147.627 24.872C147.627 26.6 148.065 27.976 148.939 29C149.814 30.024 150.987 30.536 152.459 30.536Z" fill="#0A1D37"/>
<path d="M11.6666 22.3333H1.66663V25.6667H11.6666V22.3333ZM15.2833 16.925L11.75 13.3917L9.39163 15.75L12.925 19.2833L15.2833 16.925ZM21.6666 5.66667H18.3333V15.6667H21.6666V5.66667ZM30.6083 15.75L28.25 13.3917L24.7166 16.925L27.075 19.2833L30.6083 15.75ZM28.3333 22.3333V25.6667H38.3333V22.3333H28.3333ZM20 19C17.2416 19 15 21.2417 15 24C15 26.7583 17.2416 29 20 29C22.7583 29 25 26.7583 25 24C25 21.2417 22.7583 19 20 19ZM24.7166 31.075L28.25 34.6083L30.6083 32.25L27.075 28.7167L24.7166 31.075ZM9.39163 32.25L11.75 34.6083L15.2833 31.075L12.925 28.7167L9.39163 32.25ZM18.3333 42.3333H21.6666V32.3333H18.3333V42.3333Z" fill="#0A1D37"/>
</svg>
